<?xml version="1.0" standalone="no"?>
<!DOCTYPE svg PUBLIC "-//W3C//DTD SVG 20010904//EN"
 "http://www.w3.org/TR/2001/REC-SVG-20010904/DTD/svg10.dtd">
<svg version="1.0" xmlns="http://www.w3.org/2000/svg"
 width="225.000000pt" height="225.000000pt" viewBox="0 0 225.000000 225.000000"
 preserveAspectRatio="xMidYMid meet">

<g transform="translate(0.000000,225.000000) scale(0.100000,-0.100000)"
fill="#000000" stroke="none">
<path d="M1032 1800 c-106 -15 -226 -61 -300 -117 l-34 -26 -74 18 c-125 29
-207 1 -235 -82 -16 -48 -6 -152 22 -228 19 -52 22 -82 23 -230 1 -159 3 -175
29 -250 26 -72 105 -216 127 -230 5 -3 -6 19 -24 49 -40 66 -72 162 -87 258
-29 185 40 408 168 547 l58 63 105 -53 c137 -68 244 -142 280 -193 15 -23 71
-81 123 -129 76 -70 103 -102 129 -155 30 -60 33 -75 33 -152 0 -72 -4 -93
-28 -141 -30 -62 -117 -151 -169 -174 l-33 -14 34 -1 c102 -1 248 68 345 162
33 32 61 58 63 58 1 0 19 -31 38 -70 19 -38 37 -70 40 -70 2 0 -12 36 -32 80
l-36 80 31 63 c77 153 83 333 16 485 -12 28 -26 52 -30 52 -7 0 -122 -29 -142
-35 -9 -4 -4 -18 18 -50 17 -25 27 -45 23 -45 -12 1 -60 40 -48 40 5 0 -11 21
-35 46 -26 27 -36 43 -25 38 29 -12 103 -8 155 9 l45 15 -111 0 c-129 0 -135
-7 -71 -71 26 -26 33 -37 19 -33 -18 6 -22 -2 -43 -89 -13 -52 -26 -95 -30
-95 -4 0 -17 37 -28 83 -12 45 -24 88 -27 95 -3 11 -12 9 -40 -7 -20 -12 -38
-20 -41 -18 -2 3 6 20 17 40 12 19 17 37 13 40 -4 2 -50 14 -100 27 -51 12
-93 25 -93 29 0 3 45 16 100 29 55 13 100 27 100 30 0 4 -11 24 -25 45 -14 20
-22 37 -17 37 12 0 49 -29 37 -30 -5 0 11 -20 35 -45 43 -44 47 -56 12 -34
-13 8 -37 6 -97 -9 l-80 -20 115 -1 c78 0 110 2 100 9 -8 5 -11 10 -7 10 9 0
-24 60 -33 60 -4 0 -15 7 -26 16 -18 15 -18 15 3 9 26 -7 38 14 49 85 l6 38
-57 17 c-57 16 -57 16 -112 -10 -65 -32 -102 -83 -118 -162 l-11 -54 -39 32
c-55 43 -182 129 -193 129 -4 0 -17 6 -27 14 -17 12 -13 16 46 49 234 130 522
119 737 -28 l67 -46 -50 45 c-60 55 -208 131 -290 150 -82 20 -187 26 -263 16z
m-422 -215 c0 -3 -18 -28 -40 -56 -42 -54 -110 -184 -110 -213 0 -31 -17 -16
-24 22 -21 130 9 212 89 240 32 11 85 15 85 7z"/>
<path d="M1371 1535 l-1 -110 21 33 21 32 -20 78 -20 77 -1 -110z"/>
<path d="M1403 1596 c3 -8 9 -31 12 -50 8 -38 13 -38 59 -3 18 13 17 15 -20
41 -43 29 -59 33 -51 12z"/>
<path d="M1490 1521 c-6 -12 -15 -19 -19 -17 -4 3 -23 -11 -42 -31 -19 -21
-25 -31 -14 -23 11 8 28 23 38 35 13 14 17 15 14 4 -4 -12 9 -19 59 -31 73
-17 74 -11 11 51 -35 33 -35 33 -47 12z"/>
<path d="M1301 1371 c-17 -16 -31 -33 -31 -37 0 -4 16 7 35 26 19 19 35 35 35
37 0 8 -10 1 -39 -26z"/>
<path d="M1346 1378 c-20 -29 -20 -47 3 -133 l19 -70 1 113 c1 61 -1 112 -3
112 -3 0 -12 -10 -20 -22z"/>
<path d="M802 771 c11 -19 11 -24 -6 -37 -11 -8 -31 -14 -45 -14 -25 -1 -25
-2 14 -35 55 -48 174 -106 227 -112 71 -8 143 37 182 114 9 18 16 34 16 37 0
2 -18 2 -39 -1 -23 -3 -59 1 -88 11 -38 13 -57 14 -77 6 -45 -17 -79 -12 -140
21 -52 29 -56 29 -44 10z"/>
</g>
</svg>
